Click To Enlarge 


-: Cover :-


    	http://desibbrg.org/images/54016911716402709635.jpg


-: Screens :-


    	http://desibbrg.org/images/26650845491634879062.jpg
    	http://desibbrg.org/images/95769485769865560850.jpg
    	http://desibbrg.org/images/10965542630909388056.jpg
    	http://desibbrg.org/images/08438319532718648257.jpg
    	http://desibbrg.org/images/22863201010138175099.jpg
    	http://desibbrg.org/images/39440477357015244327.jpg
    	http://desibbrg.org/images/43358118576561936301.jpg
    	http://desibbrg.org/images/09611946939749875280.jpg
    	http://desibbrg.org/images/14985620390916775219.jpg

  




-: Info :-

General

Format                           : AVI
Format/Info                      : Audio Video Interleave
File size                        : 1.37 GiB
Duration                         : 2h 39mn
Overall bit rate                 : 1 225 Kbps
Writing application              : VirtualDubMod 1.5.4.1 (build 2178/release)
Writing library                  : VirtualDubMod build 2178/release

Video
ID                               : 0
Format                           : MPEG-4 Visual
Format profile                   : Advanced Simple@L5
Format settings, BVOP            : Yes
Format settings, QPel            : No
Format settings, GMC             : No warppoints
Format settings, Matrix          : Custom
Codec ID                         : XVID
Codec ID/Hint                    : XviD
Duration                         : 2h 39mn
Bit rate                         : 769 Kbps
Width                            : 672 pixels
Height                           : 512 pixels
Display aspect ratio             : 4:3
Frame rate                       : 29.970 fps
Color space                      : YUV
Chroma subsampling               : 4:2:0
Bit depth                        : 8 bits
Scan type                        : Progressive
Bits/(Pixel*Frame)               : 0.075
Stream size                      : 878 MiB (63%)
Writing library                  : XviD 1.2.1 (UTC 2008-12-04)

Audio
ID                               : 1
Format                           : AC-3
Format/Info                      : Audio Coding 3
Mode extension                   : CM (complete main)
Codec ID                         : 2000
Duration                         : 2h 39mn
Bit rate mode                    : Constant
Bit rate                         : 448 Kbps
Channel(s)                       : 2 channels
Channel positions                : Front: L R
Sampling rate                    : 48.0 KHz
Bit depth                        : 16 bits
Stream size                      : 511 MiB (37%)
Alignment                        : Aligned on interleaves
Interleave, duration             : 96 ms (2.88 video frames)
Interleave, preload duration     : 96 ms
Language                         : Hindi


Ripper - sunnyc_1994 

 
http://www.imdb.com/title/tt0156593/

Directed by
Vijay Bhatt	 	
 
Writing credits
(in alphabetical order)
Dhruva Chatterjee	 	screenplay (as Dhruva Chatterji)
Dhruva Chatterjee	 	story (as Dhruva Chatterji)
Qamar Jalalabadi	 	dialogue
Moosa Kaleem	 	dialogue director

Cast (in credits order) complete, awaiting verification
	Mala Sinha	... 	Shobna / Kamla
	Manoj Kumar	... 	Shanker
	Shashikala	... 	Rita
	Om Prakash	... 	Joseph
	Helen	... 	Dancer Dolly
	Manmohan Krishna	... 	Shivnath
	Jagdeep		
	Surendra		
	Krishna Kumari		

Shanker and Rita's marriage is finalized by their elders in their childhoods, however, after growing up, Shanker loves Shobna. Shanker is told to marry Rita instead, and he does so. The marriage is rocky as Rita does not pay attention to her husband and son. Then Shobna re-enters their life. Memorable songs too: "Ilfizaye ishq me hum sari raat jaghe, allah jaane kya hoga aage, oh mollah jaane kya hoga aage..."; "Ye hariyali aur ye raasta, ein rahon par tera mera jivan bar ka vasta..."; "Bol meri taqdeer me kya hai mere humsafar ab to bata jivan ke do pehlu hain, hariyali aur raasta..."; "Kho gaya hai mera pyar, dhundta hoon main mera pyar..."; "Teri yaad dil se bhulane chala hoon, ke khud apni hasti mitane chala hoon..."; "Lakhon tare aasman me ek magar dhundhe na mila, dekke duniya ki diwali dil mera chup chap jala..."


